<svg width="41" height="27" viewBox="0 0 41 27" fill="none" xmlns="http://www.w3.org/2000/svg">
<path d="M4.36529 0.696676C4.11306 0.696985 3.86083 0.698652 3.60862 0.701677C3.35862 0.71001 3.10362 0.723343 2.85529 0.768343C2.47998 0.827652 2.12413 0.975221 1.81699 1.19891C1.50986 1.4226 1.26022 1.71601 1.08862 2.05501C0.971952 2.28501 0.898619 2.51834 0.855285 2.77168C0.808619 3.01834 0.793619 3.27168 0.788619 3.52168C0.785207 3.63776 0.782984 3.75388 0.781952 3.87001L0.781952 23.1317C0.781952 23.2483 0.785285 23.3617 0.786952 23.4767C0.793619 23.7267 0.808619 23.9817 0.853619 24.23C0.898619 24.48 0.973619 24.715 1.09029 24.945C1.32011 25.3975 1.68781 25.7652 2.14029 25.995C2.37029 26.1117 2.60362 26.1867 2.85695 26.2317C3.10362 26.2767 3.35695 26.2917 3.60695 26.2983L3.95362 26.3033H37.6103L37.9553 26.2983C38.2053 26.2917 38.4603 26.2767 38.7086 26.2317C38.9586 26.1867 39.1936 26.1133 39.422 25.9967C39.8756 25.7671 40.244 25.3986 40.4736 24.945C40.5903 24.715 40.6653 24.4817 40.7086 24.2283C40.7536 23.9817 40.7686 23.7283 40.7753 23.4783C40.7786 23.3617 40.7803 23.2483 40.7803 23.1317L40.782 22.7217V3.86834C40.782 3.75168 40.7786 3.63834 40.7753 3.52334C40.7721 3.27091 40.7499 3.01907 40.7086 2.77001C40.6289 2.26811 40.3925 1.80426 40.0333 1.44476C39.6741 1.08525 39.2105 0.848505 38.7086 0.768343C38.4595 0.727273 38.2077 0.704988 37.9553 0.701677C37.7037 0.694554 37.452 0.692886 37.2003 0.696676H4.36529ZM4.36529 1.55001H37.6019C37.7119 1.55001 37.8203 1.55334 37.9303 1.55501C38.122 1.56168 38.347 1.57168 38.5553 1.60834C38.7369 1.64168 38.8886 1.69168 39.0336 1.76501C39.326 1.91342 39.5635 2.15098 39.712 2.44334C39.7883 2.59443 39.8412 2.7563 39.8686 2.92334C39.9053 3.12834 39.9153 3.35334 39.9203 3.54668C39.9236 3.65501 39.9253 3.76334 39.9253 3.87501V23.1283C39.9253 23.2367 39.9253 23.345 39.9203 23.455C39.9153 23.6467 39.9053 23.8717 39.867 24.08C39.8309 24.3253 39.7364 24.5582 39.5913 24.7593C39.4463 24.9603 39.255 25.1235 39.0336 25.235C38.8835 25.3109 38.7228 25.3638 38.557 25.3917C38.3513 25.4244 38.1435 25.4422 37.9353 25.445L37.6019 25.45H3.95862C3.84862 25.45 3.73695 25.4467 3.63195 25.445C3.42261 25.4423 3.21373 25.4245 3.00695 25.3917C2.82529 25.3583 2.67362 25.3083 2.52695 25.235C2.23459 25.0872 1.9974 24.8494 1.85029 24.5567C1.77413 24.4055 1.72131 24.2437 1.69362 24.0767C1.66052 23.8711 1.64269 23.6633 1.64029 23.455C1.63805 23.3456 1.63694 23.2361 1.63695 23.1267V3.87334C1.63695 3.76501 1.63695 3.65501 1.64029 3.54501C1.64695 3.35501 1.65695 3.13168 1.69362 2.92001C1.72695 2.74001 1.77695 2.58834 1.85029 2.44168C1.99879 2.1498 2.23638 1.91279 2.52862 1.76501C2.6795 1.68957 2.84068 1.63678 3.00695 1.60834C3.21529 1.57168 3.44029 1.56001 3.63195 1.55501C3.74029 1.55168 3.85029 1.55168 3.95862 1.55001H4.36529ZM12.2153 7.71668C11.7153 7.74334 11.102 8.04834 10.7486 8.47668C10.4303 8.84334 10.1486 9.44334 10.222 10.0067C10.7853 10.0567 11.347 9.72501 11.702 9.31001C12.0436 8.88001 12.277 8.30501 12.2153 7.71834V7.71668ZM15.8936 8.41668V17.5717H17.3136V14.4433H19.2803C21.077 14.4433 22.3386 13.2117 22.3386 11.4233C22.3386 9.64001 21.102 8.41501 19.3253 8.41501L15.8936 8.41668ZM17.3136 9.61501H18.9503C20.182 9.61501 20.8853 10.275 20.8853 11.43C20.8853 12.5833 20.182 13.25 18.9453 13.25H17.3136V9.61501ZM12.057 10.115C11.307 10.1317 10.6736 10.5817 10.307 10.5817C9.91529 10.5817 9.31862 10.1417 8.67195 10.1533C8.2513 10.1638 7.84073 10.2843 7.48108 10.5027C7.12142 10.7211 6.82523 11.0299 6.62195 11.3983C5.74362 12.9117 6.39029 15.1567 7.24529 16.39C7.66028 17 8.16028 17.6717 8.81862 17.6467C9.44028 17.6233 9.68529 17.2433 10.4403 17.2433C11.197 17.2433 11.417 17.6467 12.0736 17.635C12.757 17.6233 13.1853 17.025 13.5986 16.4133C14.0753 15.7183 14.2703 15.0467 14.282 15.0117C14.2703 14.9983 12.9653 14.4983 12.9536 12.9967C12.9403 11.74 13.9786 11.1417 14.027 11.105C13.4403 10.2383 12.527 10.1417 12.2103 10.1167C12.1592 10.1135 12.1081 10.1124 12.057 10.1133V10.115ZM25.7303 10.7767C24.0803 10.7767 23.0536 11.665 22.977 12.87H24.272C24.392 12.2733 24.887 11.8933 25.6803 11.8933C26.517 11.8933 27.0186 12.3367 27.0186 13.0783V13.5933L25.1903 13.7C23.6053 13.79 22.7103 14.5067 22.7103 15.6733C22.7103 16.8733 23.6236 17.685 24.9303 17.685C25.807 17.685 26.6503 17.2167 27.037 16.4733H27.0686V17.5717H28.382V12.9717C28.382 11.6333 27.3486 10.7767 25.7303 10.7767ZM28.9636 10.8967L31.3736 17.5783C31.3736 17.5833 31.252 17.9783 31.252 17.99C31.0436 18.6733 30.702 18.9417 30.0669 18.9417C29.952 18.9417 29.7236 18.9417 29.622 18.9167V20.0267C29.722 20.045 30.067 20.0583 30.1803 20.0583C31.5636 20.0583 32.2236 19.5383 32.7936 17.92L35.2936 10.8967H33.847L32.1603 16.3283H32.1353L30.447 10.895L28.9636 10.8967ZM27.0186 14.545V15.0717C27.0186 15.94 26.2686 16.6 25.312 16.6C24.5753 16.6 24.0936 16.22 24.0936 15.635C24.0936 15.065 24.557 14.7017 25.3753 14.6467L27.0186 14.545Z" fill="white"/>
</svg>
