<svg width="41" height="40" viewBox="0 0 41 40" fill="none" xmlns="http://www.w3.org/2000/svg">
<path d="M40.6992 20.1226C40.6992 9.00756 31.7442 -0.00244141 20.6992 -0.00244141C9.64922 5.85939e-05 0.694221 9.00756 0.694221 20.1251C0.694221 30.1676 8.00922 38.4926 17.5692 40.0026V25.9401H12.4942V20.1251H17.5742V15.6876C17.5742 10.6451 20.5617 7.86006 25.1292 7.86006C27.3192 7.86006 29.6067 8.25256 29.6067 8.25256V13.2026H27.0842C24.6017 13.2026 23.8267 14.7551 23.8267 16.3476V20.1226H29.3717L28.4867 25.9376H23.8242V40.0001C33.3842 38.4901 40.6992 30.1651 40.6992 20.1226Z" fill="white"/>
</svg>
