<svg width="46" height="45" viewBox="0 0 46 45" fill="none" xmlns="http://www.w3.org/2000/svg">
<path d="M39.9748 15.5719C39.9559 14.1518 39.6901 12.7458 39.1892 11.4169C38.7549 10.2959 38.0915 9.27785 37.2414 8.42779C36.3913 7.57772 35.3733 6.91433 34.2523 6.47998C32.9405 5.98753 31.5545 5.72125 30.1536 5.69248C28.3498 5.61186 27.778 5.58936 23.1992 5.58936C18.6205 5.58936 18.0336 5.58936 16.243 5.69248C14.8426 5.72146 13.4574 5.98773 12.1461 6.47998C11.0249 6.91402 10.0068 7.57731 9.15665 8.42742C8.30655 9.27752 7.64326 10.2957 7.20921 11.4169C6.71577 12.7277 6.45007 14.1133 6.42359 15.5137C6.34296 17.3194 6.31859 17.8912 6.31859 22.47C6.31859 27.0487 6.31859 27.6337 6.42359 29.4262C6.45171 30.8287 6.71609 32.2125 7.20921 33.5269C7.64398 34.6477 8.30777 35.6654 9.15816 36.5152C10.0085 37.3649 11.0268 38.0279 12.148 38.4619C13.4557 38.9741 14.8412 39.2594 16.2448 39.3056C18.0505 39.3862 18.6223 39.4106 23.2011 39.4106C27.7798 39.4106 28.3667 39.4106 30.1573 39.3056C31.5583 39.278 32.9443 39.0124 34.2561 38.52C35.3768 38.0851 36.3945 37.4216 37.2445 36.5716C38.0945 35.7216 38.7581 34.7038 39.193 33.5831C39.6861 32.2706 39.9505 30.8869 39.9786 29.4825C40.0592 27.6787 40.0836 27.1069 40.0836 22.5262C40.0798 17.9475 40.0798 17.3662 39.9748 15.5719ZM23.188 31.1287C18.3992 31.1287 14.5198 27.2494 14.5198 22.4606C14.5198 17.6719 18.3992 13.7925 23.188 13.7925C25.4869 13.7925 27.6917 14.7057 29.3173 16.3313C30.9428 17.9569 31.8561 20.1617 31.8561 22.4606C31.8561 24.7595 30.9428 26.9643 29.3173 28.5899C27.6917 30.2155 25.4869 31.1287 23.188 31.1287ZM32.2011 15.4931C31.9356 15.4934 31.6726 15.4412 31.4273 15.3398C31.182 15.2383 30.959 15.0894 30.7713 14.9016C30.5836 14.7139 30.4347 14.491 30.3332 14.2456C30.2317 14.0003 30.1796 13.7374 30.1798 13.4719C30.1798 13.2065 30.2321 12.9438 30.3336 12.6987C30.4352 12.4536 30.584 12.2309 30.7716 12.0433C30.9592 11.8557 31.1819 11.7069 31.427 11.6053C31.6721 11.5038 31.9348 11.4515 32.2002 11.4515C32.4655 11.4515 32.7282 11.5038 32.9733 11.6053C33.2184 11.7069 33.4411 11.8557 33.6287 12.0433C33.8163 12.2309 33.9651 12.4536 34.0667 12.6987C34.1682 12.9438 34.2205 13.2065 34.2205 13.4719C34.2205 14.5894 33.3167 15.4931 32.2011 15.4931Z" fill="white"/>
<path d="M23.188 28.0912C26.2977 28.0912 28.8186 25.5703 28.8186 22.4606C28.8186 19.3509 26.2977 16.83 23.188 16.83C20.0783 16.83 17.5573 19.3509 17.5573 22.4606C17.5573 25.5703 20.0783 28.0912 23.188 28.0912Z" fill="white"/>
</svg>
