<svg width="41" height="41" viewBox="0 0 41 41" fill="none" xmlns="http://www.w3.org/2000/svg">
<path d="M7.03195 8C4.9757 8 3.28195 9.69375 3.28195 11.75V29.25C3.28195 31.3062 4.9757 33 7.03195 33H34.532C36.5882 33 38.282 31.3062 38.282 29.25V11.75C38.282 9.69375 36.5882 8 34.532 8H7.03195ZM7.03195 10.5H34.532C35.2395 10.5 35.782 11.0425 35.782 11.75V29.25C35.782 29.9575 35.2395 30.5 34.532 30.5H7.03195C6.32445 30.5 5.78195 29.9575 5.78195 29.25V11.75C5.78195 11.0425 6.32445 10.5 7.03195 10.5ZM15.782 11.75C10.9632 11.75 7.03195 15.6813 7.03195 20.5C7.03195 25.3188 10.9632 29.25 15.782 29.25C17.5699 29.2573 19.3163 28.7116 20.782 27.6875C22.2479 28.7108 23.9941 29.2565 25.782 29.25C30.6007 29.25 34.532 25.3188 34.532 20.5C34.532 15.6813 30.6007 11.75 25.782 11.75C23.9941 11.7435 22.2479 12.2892 20.782 13.3125C19.3163 12.2884 17.5699 11.7427 15.782 11.75ZM15.782 14.25C17.3832 14.25 18.8195 14.87 19.9232 15.8513C19.4016 16.4945 18.9917 17.2209 18.7107 18H21.4857C21.6607 18.4 21.827 18.815 21.9145 19.25H18.3995C18.3253 19.6626 18.286 20.0808 18.282 20.5C18.282 20.93 18.332 21.345 18.3995 21.75H21.9145C21.827 22.185 21.6607 22.6 21.4857 23H18.7107C18.9895 23.7863 19.4107 24.5087 19.9232 25.1488C18.8195 26.13 17.382 26.75 15.782 26.75C12.3157 26.75 9.53195 23.9663 9.53195 20.5C9.53195 17.0337 12.3157 14.25 15.782 14.25ZM25.782 14.25C29.2482 14.25 32.032 17.0337 32.032 20.5C32.032 23.9663 29.2482 26.75 25.782 26.75C24.6824 26.7463 23.6036 26.4494 22.657 25.89C23.8737 24.3572 24.5347 22.457 24.532 20.5C24.535 18.5425 23.874 16.6419 22.657 15.1088C23.6038 14.5498 24.6825 14.2533 25.782 14.25Z" fill="white"/>
</svg>
