<svg width="50" height="40" viewBox="0 0 50 40" fill="none" xmlns="http://www.w3.org/2000/svg">
<path d="M9.08982 39.8012V37.1538C9.08982 36.1387 8.48943 35.477 7.46033 35.477C6.94587 35.477 6.38845 35.6535 6.00252 36.2271C5.70252 35.7417 5.2738 35.477 4.63064 35.477C4.20173 35.477 3.77322 35.6092 3.43005 36.0947V35.5652H2.52966V39.8012H3.43005V37.4625C3.43005 36.7125 3.81599 36.3594 4.41638 36.3594C5.01638 36.3594 5.31677 36.7566 5.31677 37.4625V39.8012H6.21716V37.4625C6.21716 36.7125 6.64568 36.3594 7.2031 36.3594C7.80349 36.3594 8.10349 36.7566 8.10349 37.4625V39.8012H9.08982ZM22.424 35.5652H20.9664V34.2856H20.066V35.5652H19.2513V36.4034H20.0658V38.3451C20.0658 39.316 20.4517 39.8894 21.4808 39.8894C21.8668 39.8894 22.2953 39.7572 22.5957 39.5807L22.3383 38.7863C22.081 38.9628 21.781 39.007 21.5666 39.007C21.1379 39.007 20.9664 38.7423 20.9664 38.3009V36.4034H22.424V35.5652ZM30.056 35.4768C29.5416 35.4768 29.1986 35.7417 28.9842 36.0947V35.5652H28.0838V39.8012H28.9842V37.4185C28.9842 36.7125 29.2842 36.3154 29.8416 36.3154C30.0131 36.3154 30.2275 36.3596 30.399 36.4036L30.6562 35.5212C30.4847 35.477 30.2275 35.477 30.056 35.477V35.4768ZM18.5224 35.9182C18.0935 35.6092 17.4933 35.477 16.8502 35.477C15.8213 35.477 15.1353 36.0064 15.1353 36.8448C15.1353 37.5509 15.6498 37.9479 16.5502 38.0804L16.9789 38.1246C17.4506 38.2126 17.7078 38.3451 17.7078 38.5658C17.7078 38.8746 17.3648 39.0953 16.7644 39.0953C16.1642 39.0953 15.6926 38.8746 15.3924 38.6541L14.9636 39.36C15.4353 39.7129 16.0785 39.8894 16.7215 39.8894C17.922 39.8894 18.6082 39.316 18.6082 38.5216C18.6082 37.7714 18.0508 37.3743 17.1931 37.242L16.7644 37.1978C16.3785 37.1536 16.0785 37.0655 16.0785 36.8008C16.0785 36.4918 16.3785 36.3154 16.8502 36.3154C17.3648 36.3154 17.8793 36.5359 18.1365 36.6683L18.5224 35.9182ZM42.4473 35.477C41.9326 35.477 41.5896 35.7417 41.3752 36.0947V35.5652H40.4748V39.8012H41.3752V37.4185C41.3752 36.7125 41.6754 36.3154 42.2326 36.3154C42.4043 36.3154 42.6187 36.3596 42.7902 36.4036L43.0474 35.5212C42.876 35.477 42.6187 35.477 42.4473 35.477ZM30.9564 37.6832C30.9564 38.9628 31.8138 39.8894 33.1431 39.8894C33.7433 39.8894 34.1721 39.7572 34.6008 39.4042L34.1721 38.6541C33.8291 38.9188 33.4861 39.051 33.1002 39.051C32.3713 39.051 31.8568 38.5216 31.8568 37.6832C31.8568 36.889 32.3713 36.3594 33.1002 36.3154C33.4861 36.3154 33.8291 36.4476 34.1721 36.7125L34.6008 35.9624C34.1721 35.6092 33.7433 35.477 33.1431 35.477C31.8138 35.477 30.9564 36.4036 30.9564 37.6832ZM39.2744 37.6832V35.5652H38.374V36.0947C38.0738 35.6977 37.6451 35.477 37.0877 35.477C35.9301 35.477 35.0297 36.4036 35.0297 37.6832C35.0297 38.9628 35.9301 39.8894 37.0877 39.8894C37.6879 39.8894 38.1168 39.6689 38.374 39.2717V39.8012H39.2744V37.6832ZM35.9728 37.6832C35.9728 36.933 36.4445 36.3154 37.2162 36.3154C37.9451 36.3154 38.4598 36.889 38.4598 37.6832C38.4598 38.4334 37.9451 39.051 37.2162 39.051C36.4445 39.0068 35.9728 38.4334 35.9728 37.6832ZM25.2111 35.477C24.0105 35.477 23.1529 36.3594 23.1529 37.6832C23.1529 39.007 24.0103 39.8894 25.2539 39.8894C25.8541 39.8894 26.4545 39.7129 26.9262 39.316L26.4972 38.6541C26.1543 38.9188 25.7256 39.0953 25.2969 39.0953C24.7394 39.0953 24.182 38.8305 24.0533 38.0802H27.0976V37.7274C27.1406 36.3594 26.3687 35.477 25.2109 35.477H25.2111ZM25.2111 36.2711C25.7683 36.2711 26.1545 36.6243 26.24 37.2862H24.0963C24.182 36.7125 24.5679 36.2711 25.2111 36.2711ZM47.5494 37.6832V33.8884H46.649V36.0947C46.3488 35.6977 45.9201 35.477 45.3627 35.477C44.2051 35.477 43.3047 36.4036 43.3047 37.6832C43.3047 38.9628 44.2051 39.8894 45.3627 39.8894C45.9631 39.8894 46.3918 39.6689 46.649 39.2717V39.8012H47.5494V37.6832ZM44.248 37.6832C44.248 36.933 44.7195 36.3154 45.4914 36.3154C46.2203 36.3154 46.7348 36.889 46.7348 37.6832C46.7348 38.4334 46.2203 39.051 45.4914 39.051C44.7195 39.0068 44.248 38.4334 44.248 37.6832ZM14.149 37.6832V35.5652H13.2486V36.0947C12.9484 35.6977 12.5197 35.477 11.9623 35.477C10.8047 35.477 9.90427 36.4036 9.90427 37.6832C9.90427 38.9628 10.8047 39.8894 11.9623 39.8894C12.5627 39.8894 12.9914 39.6689 13.2486 39.2717V39.8012H14.149V37.6832ZM10.8047 37.6832C10.8047 36.933 11.2763 36.3154 12.048 36.3154C12.7769 36.3154 13.2916 36.889 13.2916 37.6832C13.2916 38.4334 12.7769 39.051 12.048 39.051C11.2763 39.0068 10.8047 38.4334 10.8047 37.6832Z" fill="black"/>
<path d="M18.2223 3.39771H31.7281V28.3728H18.2223V3.39771Z" fill="#FF5F00"/>
<path d="M19.0799 15.8852C19.0799 10.8109 21.3951 6.30995 24.9537 3.39759C22.3385 1.2796 19.0371 0 15.4355 0C6.90293 0 0 7.10412 0 15.8852C0 24.6661 6.90293 31.7705 15.4354 31.7705C19.0369 31.7705 22.3383 30.4909 24.9537 28.3727C21.3951 25.5045 19.0799 20.9596 19.0799 15.8852Z" fill="#EB001B"/>
<path d="M49.9504 15.8852C49.9504 24.6661 43.0475 31.7705 34.5151 31.7705C30.9135 31.7705 27.6121 30.4909 24.9967 28.3727C28.5983 25.4605 30.8707 20.9596 30.8707 15.8852C30.8707 10.8109 28.5553 6.30995 24.9967 3.39759C27.6119 1.2796 30.9135 0 34.5151 0C43.0475 0 49.9506 7.14834 49.9506 15.8852H49.9504Z" fill="#F79E1B"/>
</svg>
