<svg width="37" height="37" viewBox="0 0 37 37" fill="none" xmlns="http://www.w3.org/2000/svg">
<g clip-path="url(#clip0_3_217)">
<path d="M25.6015 4.5H11.6015C11.071 4.5 10.5623 4.71071 10.1873 5.08579C9.81219 5.46086 9.60147 5.96957 9.60147 6.5V30.5C9.60147 31.0304 9.81219 31.5391 10.1873 31.9142C10.5623 32.2893 11.071 32.5 11.6015 32.5H25.6015C26.1319 32.5 26.6406 32.2893 27.0157 31.9142C27.3908 31.5391 27.6015 31.0304 27.6015 30.5V6.5C27.6015 5.96957 27.3908 5.46086 27.0157 5.08579C26.6406 4.71071 26.1319 4.5 25.6015 4.5V4.5ZM19.6015 30.5H17.6015V28.5H19.6015V30.5ZM11.6015 26.5V6.5H25.6015V26.5H11.6015Z" fill="white"/>
</g>
<defs>
<clipPath id="clip0_3_217">
<rect width="36" height="36" fill="white" transform="translate(0.601471 0.5)"/>
</clipPath>
</defs>
</svg>
