<svg width="35" height="41" viewBox="0 0 35 41" fill="none" xmlns="http://www.w3.org/2000/svg">
<path d="M10.2332 33.9154H1.80933C1.46746 33.9154 1.13925 33.765 0.920424 33.4983C0.701596 33.2316 0.612729 32.8897 0.674252 32.5479L6.07597 3.16664C6.39734 1.55981 7.71699 0.493164 9.37171 0.493164H22.3359C27.5461 0.493164 31.0538 3.82309 31.0538 8.78036C31.0538 13.7786 27.6077 23.112 19.3136 23.112H13.6452L11.3615 33.0197C11.2384 33.5461 10.7734 33.9154 10.2333 33.9154H10.2332ZM3.19738 31.6111L9.31691 31.611L11.5939 21.7033C11.7169 21.1768 12.1819 20.8076 12.7221 20.8076H19.3135C25.8981 20.8076 28.7426 12.8486 28.7426 8.78703C28.7426 5.1016 26.2879 2.81102 22.3358 2.81102H9.37167C9.05031 2.81102 8.48277 2.91359 8.34605 3.61102L3.19738 31.6111ZM14.2332 40.5068H5.80914C5.46726 40.5068 5.14589 40.3564 4.9271 40.0965C4.70831 39.8367 4.61257 39.4879 4.6741 39.1529L5.75449 32.9991C5.86386 32.37 6.45871 31.9529 7.08773 32.0623C7.71683 32.1717 8.13394 32.7734 8.02453 33.3956L7.18351 38.1956H13.3031L15.4844 28.1922C15.6006 27.6589 16.0724 27.2828 16.6125 27.2828H23.204C29.7886 27.2828 32.6331 19.3238 32.6331 15.2623C32.6331 12.6161 31.5186 10.7904 29.3305 9.84C28.7493 9.587 28.4758 8.90329 28.7357 8.32211C28.9886 7.73407 29.6724 7.46742 30.2536 7.72035C33.2758 9.03321 34.9442 11.7136 34.9442 15.2622C34.9442 20.2605 31.498 29.5939 23.204 29.5939H17.5425L15.3613 39.5973C15.2451 40.1307 14.7733 40.5067 14.2331 40.5067H14.2332V40.5068ZM15.7442 16.6367H13.474C13.1321 16.6367 12.8108 16.4863 12.5851 16.2196C12.3664 15.9598 12.2706 15.6111 12.3321 15.276L13.8501 6.85207C13.9458 6.30508 14.4244 5.90164 14.9851 5.90164H18.6569C20.045 5.90164 21.1527 6.3461 21.8569 7.18028C22.6228 8.08973 22.8757 9.38203 22.6022 11.0299C22.0484 14.9478 19.9971 16.6367 15.7441 16.6367L15.7442 16.6367ZM14.8552 14.3256L15.7441 14.3256C19.1766 14.3256 19.9834 13.0948 20.3253 10.6743C20.4347 9.99735 20.4826 9.12895 20.0997 8.67082C19.7784 8.28793 19.1356 8.21274 18.657 8.21274H15.9493L14.8553 14.3256L14.8552 14.3256Z" fill="white"/>
</svg>
