<svg width="50" height="40" viewBox="0 0 50 40" fill="none" xmlns="http://www.w3.org/2000/svg">
<path d="M16.1719 20.1719C16.1719 21.125 15.3299 21.8516 14.2622 21.8516C13.4635 21.8516 12.8733 21.4453 12.8733 20.6797C12.8733 19.7266 13.6979 18.9609 14.7569 18.9609C15.5642 18.9609 16.1719 19.4062 16.1719 20.1719ZM6.98785 16.3828H6.57986C6.44965 16.3828 6.31944 16.4609 6.30208 16.5938L5.92882 18.6797L6.64062 18.6562C7.59549 18.6562 8.33333 18.5391 8.50694 17.5469C8.7066 16.5 7.96875 16.3828 6.98785 16.3828ZM31.6406 16.3828H31.25C31.0937 16.3828 30.9896 16.4609 30.9722 16.5938L30.6076 18.6797L31.3021 18.6562C32.4306 18.6562 33.2118 18.4219 33.2118 17.25C33.2031 16.4219 32.3785 16.3828 31.6406 16.3828ZM50 6.25V33.75C50 35.8203 48.1337 37.5 45.8333 37.5H4.16667C1.86632 37.5 0 35.8203 0 33.75V6.25C0 4.17969 1.86632 2.5 4.16667 2.5H45.8333C48.1337 2.5 50 4.17969 50 6.25ZM11.1372 16.8281C11.1372 15.1875 9.7309 14.6406 8.125 14.6406H4.65278C4.43576 14.6406 4.21875 14.7969 4.20139 15.0078L2.77778 22.9844C2.75174 23.1406 2.88194 23.2969 3.05556 23.2969H4.70486C4.93924 23.2969 5.15625 23.0703 5.18229 22.8516L5.57292 20.7734C5.65972 20.2109 6.71875 20.4062 7.13542 20.4062C9.61806 20.4062 11.1372 19.0781 11.1372 16.8281ZM18.4462 17.5156H16.7969C16.467 17.5156 16.4497 17.9453 16.4323 18.1562C15.9288 17.4922 15.1997 17.375 14.375 17.375C12.2483 17.375 10.625 19.0547 10.625 20.9062C10.625 22.4297 11.684 23.4219 13.3767 23.4219C14.158 23.4219 15.1302 23.0391 15.6771 22.4922C15.6337 22.6094 15.5903 22.8594 15.5903 22.9766C15.5903 23.1562 15.6771 23.2891 15.8681 23.2891H17.3611C17.5955 23.2891 17.7951 23.0625 17.8385 22.8438L18.724 17.8203C18.75 17.6719 18.6198 17.5156 18.4462 17.5156ZM21.9618 25.1641L27.4913 17.9297C27.5347 17.8906 27.5347 17.8516 27.5347 17.7969C27.5347 17.6641 27.4045 17.5234 27.2569 17.5234H25.5903C25.4427 17.5234 25.2865 17.6016 25.1996 17.7188L22.8993 20.7656L21.9444 17.8359C21.875 17.6641 21.684 17.5234 21.467 17.5234H19.8438C19.6962 17.5234 19.566 17.6641 19.566 17.7969C19.566 17.8906 21.2587 22.2344 21.4062 22.6484C21.1719 22.9453 19.6267 24.8828 19.6267 25.1172C19.6267 25.2578 19.7569 25.3672 19.9045 25.3672H21.5712C21.7274 25.3594 21.875 25.2812 21.9618 25.1641ZM35.7899 16.8281C35.7899 15.1875 34.3837 14.6406 32.7778 14.6406H29.3316C29.0972 14.6406 28.8802 14.7969 28.8542 15.0078L27.4479 22.9766C27.4306 23.1328 27.5608 23.2891 27.7257 23.2891H29.5052C29.6788 23.2891 29.809 23.1719 29.8524 23.0391L30.2431 20.7734C30.3299 20.2109 31.3889 20.4062 31.8056 20.4062C34.2708 20.4062 35.7899 19.0781 35.7899 16.8281ZM43.099 17.5156H41.4496C41.1198 17.5156 41.1024 17.9453 41.0764 18.1562C40.599 17.4922 39.8611 17.375 39.0191 17.375C36.8924 17.375 35.2691 19.0547 35.2691 20.9062C35.2691 22.4297 36.3281 23.4219 38.0208 23.4219C38.8281 23.4219 39.8003 23.0391 40.3212 22.4922C40.2951 22.6094 40.2344 22.8594 40.2344 22.9766C40.2344 23.1562 40.3212 23.2891 40.5122 23.2891H42.0139C42.2483 23.2891 42.4479 23.0625 42.4913 22.8438L43.3767 17.8203C43.4028 17.6719 43.2726 17.5156 43.099 17.5156ZM47.2222 14.9141C47.2222 14.7578 47.092 14.6406 46.9444 14.6406H45.3385C45.2083 14.6406 45.0781 14.7344 45.0608 14.8516L43.6545 22.9766L43.6285 23.0156C43.6285 23.1562 43.7587 23.2891 43.9323 23.2891H45.3646C45.5816 23.2891 45.7986 23.0625 45.816 22.8438L47.2222 14.9375V14.9141ZM39.4097 18.9609C38.3507 18.9609 37.526 19.7188 37.526 20.6797C37.526 21.4375 38.1337 21.8516 38.9323 21.8516C39.974 21.8516 40.816 21.1328 40.816 20.1719C40.8247 19.4062 40.217 18.9609 39.4097 18.9609Z" fill="#699BF7"/>
</svg>
