<svg width="94" height="104" viewBox="0 0 94 104" fill="none" xmlns="http://www.w3.org/2000/svg">
<path d="M52.034 54.8514C42.6873 62.0345 34.8981 64.2856 14.1266 61.1698C12.4405 60.9171 10.7792 60.8345 9.14865 60.8948C11.9521 74.8323 24.2633 85.3284 39.0263 85.3284C55.5062 85.3284 68.9306 72.2484 69.4848 55.903C63.059 52.7167 57.1331 50.933 52.034 54.8514Z" fill="#7D7872"/>
<path d="M84.4248 70.2996C82.6272 73.6705 79.7701 75.9433 75.5931 77.2717C78.9488 66.3016 77.7036 54.9824 76.0128 47.2776C76.6917 47.2529 77.4932 47.2523 78.3531 47.3078C80.381 47.4386 83.1778 47.9144 84.9874 49.4406C86.3086 50.5556 86.9683 52.1633 87.0033 54.3558C87.0889 59.6889 86.8489 65.7541 84.4248 70.2996ZM93.5864 54.2509C93.552 52.1271 93.1384 50.1908 92.3551 48.4963C91.6206 46.9068 90.5623 45.5247 89.2098 44.3892C86.6228 42.2177 83.053 40.9851 78.5991 40.7264C76.863 40.6257 75.3265 40.6999 74.2839 40.7892C73.664 38.8318 73.2093 37.7156 73.2093 37.7156H67.3197C70.3529 42.7128 72.0992 48.5783 72.0992 54.8515C72.0992 73.1175 57.2922 87.9252 39.0262 87.9252C20.7603 87.9252 5.95267 73.1175 5.95267 54.8515C5.95267 48.5783 7.69899 42.7128 10.7328 37.7156H4.49699C4.49699 37.7156 -11.0126 75.8208 15.5744 97.0856C15.5683 97.1749 15.5641 97.2641 15.5641 97.3546V99.3536C15.5641 101.495 17.3171 103.248 19.459 103.248H57.9422C60.0841 103.248 61.8365 101.495 61.8365 99.3536V97.3546C61.8365 97.3437 61.8359 97.3335 61.8359 97.3226C66.6262 93.558 70.0755 89.2536 72.5074 84.7183C76.7478 84.0514 80.3786 82.7676 83.308 80.8976C86.2526 79.018 88.5826 76.495 90.2343 73.3973C93.3645 67.5288 93.6853 60.4252 93.5864 54.2509Z" fill="#808B78"/>
<path d="M42.9887 57.3154C42.9887 57.3154 43.1967 57.1483 43.5585 56.8131C43.6484 56.728 43.7497 56.6352 43.857 56.5278C43.9655 56.4235 44.0825 56.3077 44.2074 56.1811C44.4552 55.926 44.7362 55.6323 45.0353 55.291C45.335 54.9503 45.6558 54.5668 45.9869 54.1387C46.3179 53.7105 46.6538 53.233 46.9975 52.7204C47.3322 52.1994 47.6735 51.641 47.9961 51.0368C48.0799 50.8872 48.1523 50.7286 48.2337 50.5737C48.2729 50.4959 48.3133 50.4175 48.3531 50.3391C48.3941 50.2601 48.4285 50.1781 48.4664 50.0973C48.5412 49.9351 48.6172 49.771 48.6938 49.6058C48.7643 49.4376 48.8349 49.2675 48.9066 49.0963C48.9416 49.01 48.9808 48.9262 49.0122 48.837C49.0447 48.7495 49.0779 48.6615 49.1111 48.5729C49.1442 48.4842 49.1774 48.3956 49.2112 48.3063C49.2449 48.2177 49.2787 48.1284 49.3071 48.0362C49.3674 47.8541 49.4277 47.6701 49.4886 47.4844C49.5211 47.3928 49.547 47.2981 49.5736 47.2034C49.6007 47.1087 49.6279 47.0135 49.655 46.9182C49.6821 46.8229 49.7093 46.7276 49.7364 46.6317C49.7647 46.5365 49.784 46.4376 49.8088 46.3399C49.8558 46.1451 49.9034 45.9485 49.9517 45.7507C49.9909 45.5505 50.0301 45.3491 50.0693 45.1465C50.0892 45.0452 50.1115 44.9445 50.129 44.842C50.144 44.7395 50.1597 44.6364 50.1754 44.5327C50.2049 44.3252 50.2405 44.119 50.2664 43.9085C50.2894 43.6987 50.3123 43.4864 50.3352 43.2736C50.3635 43.0619 50.3714 42.8454 50.3846 42.6295C50.3919 42.5216 50.3991 42.4131 50.4063 42.3045C50.413 42.196 50.4238 42.088 50.4232 41.9777C50.4275 41.7588 50.4311 41.5387 50.4353 41.3174C50.4443 41.0967 50.4347 40.8736 50.4299 40.6498C50.4274 40.5377 50.425 40.4261 50.422 40.3134L50.4184 40.1451L50.4166 40.0607C50.4166 40.0317 50.4166 40.077 50.416 40.0637L50.4148 40.0408L50.4118 39.995C50.3973 39.7544 50.3876 39.4921 50.3665 39.2967L50.3533 39.1387C50.3491 39.0862 50.3442 39.0338 50.337 38.9777C50.3249 38.8673 50.3123 38.757 50.3002 38.646C50.2882 38.5351 50.2695 38.4265 50.2544 38.3168L50.2321 38.1516C50.2242 38.0967 50.214 38.043 50.2049 37.9881C50.1368 37.5509 50.0421 37.121 49.93 36.6983C49.7105 35.851 49.3999 35.04 48.9959 34.2699C48.7921 33.8852 48.5696 33.5083 48.3199 33.1399C48.2584 33.0476 48.1915 32.9572 48.1282 32.8649C48.063 32.7739 47.9943 32.684 47.928 32.593L47.7199 32.3222L47.5034 32.0533C46.9131 31.3399 46.2383 30.6404 45.5087 29.915C44.7832 29.1841 44.0005 28.4285 43.2449 27.5638C42.8669 27.132 42.4942 26.675 42.1469 26.1853C41.7989 25.6969 41.4709 25.1777 41.1875 24.6295C40.9034 24.082 40.6586 23.5091 40.4632 22.9254C40.2697 22.3405 40.1249 21.7459 40.0248 21.155C39.9253 20.564 39.8753 19.9773 39.8566 19.4032C39.8536 19.2597 39.8482 19.1162 39.8488 18.9739C39.8512 18.8321 39.853 18.6911 39.8554 18.5499L39.8566 18.4667L39.8596 18.4203L39.8644 18.3274L39.8747 18.1423C39.8795 18.0301 39.8928 17.8691 39.9042 17.7232L39.9223 17.5019C39.929 17.4289 39.9386 17.3614 39.9465 17.2914C39.9639 17.1521 39.976 17.0141 39.9995 16.876C40.0218 16.7379 40.0435 16.6004 40.0653 16.4629C40.0918 16.326 40.1183 16.1897 40.1448 16.0535C40.2033 15.7827 40.2648 15.5132 40.3384 15.2484C40.3728 15.1152 40.4138 14.9843 40.4542 14.8535L40.5145 14.6581L40.5814 14.4651C40.9318 13.4358 41.4082 12.4824 41.9539 11.6339C42.4984 10.7831 43.1075 10.033 43.728 9.36602C44.3503 8.69969 44.9828 8.11356 45.5973 7.5811C46.8281 6.51859 47.9774 5.65749 48.9266 4.84824C49.4017 4.44482 49.8281 4.05648 50.1989 3.67839C50.5722 3.30151 50.8779 2.92762 51.136 2.57365C51.2005 2.485 51.2572 2.39578 51.3163 2.30955C51.37 2.22151 51.4248 2.13646 51.4737 2.05204C51.5195 1.96641 51.5714 1.88503 51.6124 1.80301C51.6534 1.7204 51.6974 1.64199 51.7324 1.5636C51.8801 1.25124 51.9784 0.969635 52.0472 0.736267C52.064 0.67717 52.0803 0.622295 52.0948 0.570438C52.108 0.517975 52.1195 0.468536 52.1304 0.423313C52.1418 0.377483 52.1521 0.33527 52.1611 0.296677C52.169 0.258083 52.1756 0.223095 52.1816 0.191738C52.2057 0.0651054 52.2184 0 52.2184 0C52.2184 0 52.2281 0.0657158 52.2461 0.193554C52.2504 0.226116 52.2546 0.262299 52.26 0.302097C52.263 0.342499 52.2666 0.385929 52.2709 0.43417C52.2745 0.481808 52.2781 0.534252 52.2823 0.589729C52.2835 0.645809 52.2847 0.704914 52.2859 0.76823C52.2908 0.896069 52.2823 1.03777 52.2763 1.19576C52.2685 1.27415 52.2612 1.35678 52.2528 1.44241C52.2431 1.52864 52.228 1.61667 52.2148 1.71014C52.1551 2.08039 52.049 2.50611 51.8723 2.96139C51.5286 3.87858 50.9032 4.90491 50.0898 5.95115C49.2799 7.0028 48.2922 8.08703 47.3105 9.26653C46.8202 9.85628 46.3342 10.4725 45.8819 11.1214C45.4303 11.7702 45.0166 12.4541 44.6699 13.1735C44.4986 13.5341 44.3406 13.9013 44.2062 14.2788C44.0729 14.6569 43.9577 15.0428 43.8654 15.4372L43.8305 15.5855L43.8003 15.7351C43.7804 15.8346 43.7593 15.9341 43.7442 16.0354C43.7075 16.2362 43.6803 16.44 43.6544 16.6444C43.6435 16.7475 43.6333 16.8506 43.6224 16.9538C43.6152 17.0575 43.6086 17.1618 43.6013 17.2661C43.5923 17.3698 43.5923 17.476 43.5869 17.5809C43.5851 17.6328 43.582 17.6876 43.5814 17.7371V17.8842C43.5814 17.9837 43.5784 18.0693 43.5826 18.2038L43.5869 18.3895L43.5887 18.4824L43.5899 18.5288C43.5899 18.5439 43.5905 18.4842 43.5911 18.5192L43.5923 18.5391C43.5983 18.6458 43.6049 18.7532 43.6116 18.8605C43.6182 18.9672 43.6297 19.0728 43.6381 19.1795C43.6797 19.6022 43.7473 20.0177 43.8383 20.4217C43.9294 20.8257 44.0494 21.2183 44.1983 21.5988C44.3454 21.9799 44.5221 22.3495 44.7296 22.7113C44.9376 23.0726 45.1704 23.4289 45.4387 23.7793C45.7058 24.129 45.9989 24.4782 46.3161 24.8279C46.9523 25.525 47.6795 26.2318 48.4375 26.9861C49.1925 27.7453 49.9788 28.5582 50.7024 29.4736L50.9714 29.8203L51.2337 30.1761C51.3181 30.2979 51.4031 30.4185 51.4863 30.5415C51.5678 30.6663 51.651 30.7887 51.73 30.9154C52.049 31.4189 52.3438 31.9429 52.5989 32.4844C52.8546 33.0259 53.0783 33.5801 53.2634 34.1415C53.4467 34.7035 53.5927 35.2703 53.7078 35.8348C53.8206 36.3992 53.9038 36.9618 53.9545 37.5172C53.9702 37.6565 53.981 37.7946 53.9895 37.9327C53.9973 38.0707 54.0094 38.2088 54.0136 38.3451C54.019 38.482 54.0238 38.6189 54.0287 38.7552C54.0317 38.8221 54.0323 38.8927 54.0329 38.9632L54.0347 39.1743C54.0395 39.4709 54.0305 39.6983 54.0232 39.9455L54.0202 40.0631L54.0136 40.1614L54.0015 40.3574C53.9931 40.4876 53.9846 40.6179 53.9768 40.7481C53.9545 41.2673 53.8803 41.7805 53.823 42.2864C53.8104 42.4131 53.7856 42.5391 53.7657 42.6645C53.7452 42.7899 53.7241 42.9148 53.7036 43.039C53.6602 43.288 53.6216 43.5353 53.5631 43.7789C53.5095 44.0225 53.4552 44.2643 53.4021 44.5049C53.3895 44.5652 53.3738 44.6243 53.3569 44.6834L53.3075 44.8607C53.2749 44.9789 53.2423 45.0965 53.2098 45.2135C53.1772 45.3304 53.1446 45.4468 53.1121 45.5626C53.0777 45.6784 53.0379 45.7924 53.0017 45.9057C52.9269 46.1337 52.851 46.3586 52.775 46.5811C52.69 46.8006 52.6055 47.0189 52.5217 47.2348C52.4783 47.3427 52.4409 47.4512 52.3927 47.5556C52.3456 47.6605 52.2992 47.7648 52.2528 47.8691C51.8916 48.7037 51.4695 49.4756 51.0341 50.1895C50.9225 50.3668 50.8122 50.5417 50.703 50.7148C50.5866 50.883 50.4721 51.0488 50.3581 51.2129C50.3002 51.2943 50.2465 51.3775 50.1862 51.4559C50.1271 51.5343 50.0681 51.612 50.0096 51.6898C49.9505 51.767 49.8926 51.8442 49.8341 51.9202C49.7762 51.9968 49.7189 52.0722 49.6574 52.1445C49.5374 52.2904 49.4186 52.434 49.301 52.5757C49.2437 52.6474 49.1828 52.715 49.1219 52.7825C49.0616 52.8494 49.0013 52.9164 48.9416 52.9827C48.7077 53.251 48.461 53.4947 48.2289 53.7341C47.9864 53.965 47.7597 54.193 47.5233 54.3962C47.4063 54.4993 47.2948 54.6024 47.1802 54.6989C47.065 54.7936 46.9517 54.8864 46.8407 54.9781C46.7316 55.0703 46.6188 55.1548 46.5109 55.2392C46.4017 55.3224 46.298 55.4068 46.1913 55.4834C45.9808 55.639 45.777 55.7831 45.5798 55.914C45.3857 56.0478 45.1957 56.1666 45.0196 56.2794C44.9316 56.3361 44.8417 56.3855 44.7579 56.4362C44.6735 56.4862 44.5927 56.5351 44.5125 56.5791C44.1959 56.7612 43.9185 56.9011 43.693 57.0108C43.4675 57.12 43.2908 57.1954 43.1708 57.2448C43.0514 57.2943 42.9887 57.3154 42.9887 57.3154Z" fill="#7D7872"/>
<path d="M38.1549 58.6655C38.1549 58.6655 38.1904 58.6384 38.2574 58.5841C38.3243 58.5292 38.4214 58.446 38.548 58.3381C38.6734 58.2289 38.826 58.0933 39.0027 57.931C39.0901 57.849 39.1848 57.7622 39.2831 57.6657C39.382 57.5716 39.4869 57.4709 39.5949 57.3612C40.029 56.927 40.538 56.3861 41.0783 55.7361C41.6192 55.0872 42.1896 54.328 42.742 53.4633C42.8765 53.245 43.0224 53.0285 43.1539 52.797C43.2214 52.6824 43.2889 52.5672 43.3577 52.4508C43.4252 52.3338 43.4873 52.212 43.5537 52.092C43.6188 51.9714 43.6839 51.8496 43.7502 51.7266C43.813 51.6024 43.8757 51.477 43.939 51.3509C44.0704 51.1007 44.1844 50.8372 44.3044 50.5736C44.7742 49.5141 45.1866 48.3666 45.4893 47.1491C45.7933 45.9328 45.9965 44.6514 46.0905 43.3386C46.0996 43.174 46.1086 43.0094 46.1171 42.8448L46.1321 42.5969L46.1394 42.4733C46.1412 42.4317 46.14 42.3901 46.1412 42.3485C46.1448 42.0217 46.1484 41.693 46.152 41.3644C46.1478 41.1889 46.1436 41.0134 46.14 40.8379C46.1321 40.6787 46.1243 40.5189 46.1165 40.3597L46.0803 39.8677L46.029 39.3792C45.9543 38.7298 45.8361 38.0918 45.6793 37.4713C45.6027 37.1601 45.5068 36.8562 45.4103 36.5541C45.306 36.255 45.1969 35.9583 45.072 35.6695C44.8278 35.0894 44.5342 34.5352 44.2079 34.0015C43.8793 33.4691 43.5169 32.9583 43.1285 32.4668C42.3549 31.4815 41.4871 30.5692 40.6676 29.6544C40.2594 29.1955 39.8566 28.742 39.4863 28.2783C39.1167 27.8146 38.7693 27.3503 38.4678 26.8787C38.1675 26.4071 37.9016 25.9368 37.6875 25.4718C37.4735 25.0063 37.2998 24.5517 37.1738 24.1163C37.0477 23.6803 36.9536 23.2684 36.8952 22.8843C36.8409 22.5002 36.8005 22.1486 36.7908 21.8302C36.7878 21.7506 36.7824 21.6735 36.7818 21.5987C36.7812 21.5233 36.7806 21.4503 36.78 21.3798C36.777 21.2393 36.7824 21.1072 36.7872 20.9848C36.792 20.74 36.815 20.5325 36.8276 20.3655C36.8427 20.1985 36.8632 20.0706 36.8728 19.985C36.8837 19.8994 36.8897 19.8547 36.8897 19.8547C36.8897 19.8547 36.9181 20.0308 36.9717 20.3601C37.0314 20.6875 37.1213 21.1651 37.2841 21.7518C37.3052 21.8248 37.3257 21.9002 37.3486 21.9762C37.3734 22.0521 37.3981 22.1299 37.4234 22.2101C37.4355 22.2493 37.4481 22.2897 37.4614 22.3301C37.4753 22.3705 37.4897 22.4109 37.5048 22.4519C37.5343 22.534 37.5627 22.6178 37.5947 22.7022C37.7261 23.0393 37.8769 23.3969 38.0668 23.7623C38.4407 24.4962 38.9569 25.2602 39.622 26.0164C39.7884 26.2045 39.9621 26.3957 40.1442 26.5862C40.3287 26.7756 40.5181 26.9667 40.7189 27.1573C41.1163 27.5402 41.5414 27.931 41.9918 28.3314C42.8873 29.1358 43.8714 30.0005 44.8127 31.0383C45.2837 31.5551 45.7378 32.1195 46.1581 32.7268C46.3661 33.0319 46.5669 33.3472 46.7551 33.6729C46.9408 34.0003 47.1181 34.3362 47.2779 34.6823C47.4425 35.0267 47.5824 35.383 47.7181 35.7418C47.8465 36.103 47.9671 36.4685 48.0648 36.8393C48.268 37.5798 48.4073 38.3354 48.4978 39.0898L48.5539 39.656L48.5925 40.221C48.6009 40.414 48.6075 40.6076 48.6136 40.8005C48.6148 40.9772 48.616 41.1539 48.6172 41.3306V41.4144L48.6148 41.4838L48.6105 41.6225L48.6021 41.8998C48.5955 42.0844 48.5888 42.2689 48.5822 42.4528C48.5798 42.4992 48.5792 42.5451 48.5762 42.5909L48.5647 42.729L48.5418 43.004C48.5255 43.1873 48.5098 43.3706 48.4936 43.5527C48.341 45.012 48.0377 46.4351 47.6035 47.7642C47.1711 49.0944 46.6031 50.327 45.9615 51.4263C45.7981 51.7001 45.6419 51.9714 45.4682 52.2277C45.3838 52.3562 45.3006 52.4846 45.2174 52.6118C45.1329 52.7373 45.0413 52.8573 44.9551 52.9785C44.8664 53.0991 44.782 53.2197 44.6934 53.3361C44.6029 53.4512 44.5137 53.5652 44.425 53.678C44.2507 53.9059 44.0668 54.1188 43.8865 54.3268C43.8419 54.3793 43.7973 54.4305 43.7527 54.4824C43.7062 54.5318 43.6604 54.5819 43.6146 54.6313C43.5235 54.7296 43.4337 54.8273 43.3444 54.9238C43.1647 55.1156 42.9814 55.2947 42.8047 55.4707C42.6232 55.642 42.4459 55.8078 42.2716 55.9664C42.0937 56.1208 41.9243 56.274 41.7518 56.4133C41.0692 56.9777 40.4385 57.4179 39.903 57.7507C39.6365 57.919 39.3922 58.0589 39.1776 58.1753C38.9641 58.2935 38.7778 58.3857 38.6264 58.4587C38.4751 58.5317 38.3563 58.5817 38.2767 58.6161C38.1965 58.6492 38.1549 58.6655 38.1549 58.6655Z" fill="#7D7872"/>
</svg>
