<svg width="41" height="40" viewBox="0 0 41 40" fill="none" xmlns="http://www.w3.org/2000/svg">
<path d="M20.1992 5C10.5352 5 2.69922 12.8359 2.69922 22.5C2.69922 32.1641 10.5352 40 20.1992 40C29.8633 40 37.6992 32.1641 37.6992 22.5C37.6992 12.8359 29.8633 5 20.1992 5ZM28.6094 18.1914C28.6211 18.375 28.6211 18.5664 28.6211 18.7539C28.6211 24.4883 24.2539 31.0938 16.2734 31.0938C13.8125 31.0938 11.5312 30.3789 9.60938 29.1484C9.96094 29.1875 10.2969 29.2031 10.6563 29.2031C12.6875 29.2031 14.5547 28.5156 16.043 27.3516C14.1367 27.3125 12.5352 26.0625 11.9883 24.3438C12.6562 24.4414 13.2578 24.4414 13.9453 24.2656C12.9638 24.0662 12.0815 23.5331 11.4485 22.757C10.8155 21.9808 10.4707 21.0094 10.4727 20.0078V19.9531C11.0469 20.2773 11.7227 20.4766 12.4297 20.5039C11.8353 20.1078 11.3479 19.5711 11.0106 18.9415C10.6733 18.3119 10.4966 17.6088 10.4961 16.8945C10.4961 16.0859 10.707 15.3477 11.0859 14.707C12.1754 16.0482 13.5349 17.1451 15.076 17.9264C16.6172 18.7078 18.3055 19.1561 20.0312 19.2422C19.418 16.293 21.6211 13.9062 24.2695 13.9062C25.5195 13.9062 26.6445 14.4297 27.4375 15.2734C28.418 15.0898 29.3555 14.7227 30.1914 14.2305C29.8672 15.2344 29.1875 16.082 28.2852 16.6172C29.1602 16.5234 30.0039 16.2812 30.7852 15.9414C30.1953 16.8086 29.457 17.5781 28.6094 18.1914Z" fill="white"/>
</svg>
