<svg width="51" height="51" viewBox="0 0 51 51" fill="none" xmlns="http://www.w3.org/2000/svg">
<path d="M25.5661 42.5C16.1661 42.5 8.5661 34.9 8.5661 25.5C8.5661 16.1 16.1661 8.5 25.5661 8.5C34.9661 8.5 42.5661 16.1 42.5661 25.5C42.5661 34.9 34.8661 42.5 25.5661 42.5ZM25.5661 10.5C17.2661 10.5 10.5661 17.2 10.5661 25.5C10.5661 33.8 17.2661 40.5 25.5661 40.5C33.8661 40.5 40.5661 33.8 40.5661 25.5C40.5661 17.2 33.7661 10.5 25.5661 10.5Z" fill="white"/>
<path d="M15.7661 37.8L13.9661 37C14.4661 35.8 16.0661 35.1 17.7661 34.3C19.4661 33.5 21.5661 32.6 21.5661 31.5V30C20.9661 29.5 19.9661 28.4 19.7661 26.8C19.2661 26.3 18.4661 25.4 18.4661 24.2C18.4661 23.5 18.7661 22.9 18.9661 22.5C18.7661 21.7 18.5661 20.2 18.5661 19C18.5661 15.1 21.2661 12.5 25.5661 12.5C26.7661 12.5 28.2661 12.8 29.0661 13.7C30.9661 14.1 32.5661 16.3 32.5661 19C32.5661 20.7 32.2661 22.1 32.0661 22.8C32.2661 23.1 32.4661 23.6 32.4661 24.2C32.4661 25.5 31.7661 26.4 31.1661 26.8C30.9661 28.4 30.0661 29.4 29.4661 29.9V31.5C29.4661 32.4 31.2661 33.1 32.8661 33.7C34.7661 34.4 36.7661 35.2 37.4661 36.8L35.5661 37.5C35.2661 36.7 33.6661 36.1 32.1661 35.6C29.9661 34.8 27.4661 33.9 27.4661 31.6V29L27.9661 28.7C27.9661 28.7 29.1661 27.9 29.1661 26.3V25.6L29.7661 25.3C29.8661 25.3 30.3661 25 30.3661 24.2C30.3661 24 30.1661 23.7 30.0661 23.6L29.6661 23.2L29.8661 22.7C29.8661 22.7 30.3661 21.1 30.3661 19.1C30.3661 17.2 29.2661 15.8 28.3661 15.8H27.7661L27.4661 15.3C27.4661 14.9 26.7661 14.5 25.5661 14.5C22.4661 14.5 20.5661 16.2 20.5661 19C20.5661 20.3 21.0661 22.5 21.0661 22.5L21.1661 23L20.7661 23.5C20.6661 23.5 20.4661 23.8 20.4661 24.2C20.4661 24.7 21.0661 25.3 21.3661 25.5L21.7661 25.8V26.3C21.7661 27.8 23.0661 28.6 23.0661 28.7L23.5661 29V31.6C23.5661 34 20.9661 35.2 18.5661 36.2C17.4661 36.6 15.9661 37.3 15.7661 37.8V37.8Z" fill="white"/>
</svg>
