<svg width="41" height="41" viewBox="0 0 41 41" fill="none" xmlns="http://www.w3.org/2000/svg">
<path d="M28.347 15.81C27.5722 15.5277 26.7532 15.386 25.9286 15.3916C23.262 15.3916 21.3786 16.735 21.3653 18.6633C21.3486 20.08 22.7036 20.8783 23.7286 21.3516C24.7803 21.8383 25.132 22.145 25.1286 22.58C25.122 23.2416 24.2886 23.5416 23.5136 23.5416C22.4486 23.5416 21.867 23.3933 20.972 23.0216L20.6403 22.8666L20.262 25.0866C20.9103 25.3566 22.0786 25.5883 23.2853 25.6083C26.1203 25.6083 27.9736 24.2733 27.9953 22.2216C28.0186 21.09 27.2853 20.235 25.742 19.5283C24.8036 19.07 24.222 18.7633 24.222 18.2983C24.222 17.8866 24.7203 17.4466 25.762 17.4466C26.4552 17.4299 27.1442 17.5599 27.7836 17.8283L28.0336 17.94L28.412 15.795L28.347 15.81ZM35.267 15.5716H33.1836C32.5353 15.5716 32.047 15.75 31.7636 16.3933L27.757 25.47H30.592L31.1586 23.9816L34.6186 23.985C34.7003 24.3333 34.9503 25.47 34.9503 25.47H37.4503L35.267 15.5716ZM17.5303 15.4883H20.232L18.542 25.3916H15.8436L17.5303 15.485V15.4883ZM10.672 20.9466L10.952 22.3216L13.592 15.5716H16.4536L12.202 25.4566H9.34695L7.01362 17.0866C6.97583 16.9486 6.88708 16.8301 6.76529 16.755C5.92429 16.3205 5.0332 15.9909 4.11195 15.7733L4.14862 15.565H8.49695C9.08695 15.5883 9.56195 15.7733 9.72029 16.4033L10.6703 20.9516V20.9466H10.672ZM31.9336 21.9566L33.0103 19.1866C32.997 19.2166 33.232 18.615 33.3686 18.2433L33.5536 19.0983L34.1786 21.955H31.932V21.9566H31.9336Z" fill="white"/>
</svg>
